# xmcd CD database file
#
# Track frame offsets:
#	150
#	5365
#	32960
#	54805
#	76682
#	95990
#	118827
#	137275
#	157675
#	165940
#	185395
#	200575
#	219060
#
# Disc length: 3333 seconds
#
# Revision: 0
# Processed by: cddbd v1.4PL0 Copyright (c) Steve Scherf et al.
# Submitted via: CDex 1.51
#
DISCID=940d030d
DTITLE=Adela Dalto - Exotica
DYEAR=1996
DGENRE=Jazz
TTITLE0=Dawning
TTITLE1=Moon And Sand
TTITLE2=And When The Clouds Fade Away
TTITLE3=Dreams Of Paradise
TTITLE4=Summer Passion
TTITLE5=Brazilian Summer
TTITLE6=Chora Coracao
TTITLE7=Bachianas Brasileiras No. 5
TTITLE8=Sol Do Meio Dia
TTITLE9=Pobre De Mim
TTITLE10=Coracao Vagabundo
TTITLE11=Waiting For Him
TTITLE12=Afro Sambas
EXTD=YEAR: 1996
EXTT0=
EXTT1=
EXTT2=
EXTT3=
EXTT4=
EXTT5=
EXTT6=
EXTT7=
EXTT8=
EXTT9=
EXTT10=
EXTT11=
EXTT12=
PLAYORDER=
